<svg width="257" height="177" viewBox="0 0 257 177" fill="none" xmlns="http://www.w3.org/2000/svg">
<path d="M190.071 3.96289V101.977H184.975V0.0742188H190.009L190.071 3.96289ZM170.647 3.98242V101.957H165.551V0.129883L170.433 0.0546875L170.647 3.98242ZM164.164 4.00684V101.93H159.079L159.069 0.21582L163.981 0.0273438L164.164 4.00684ZM183.557 4.01562V101.921H178.513L178.462 0.167969L180.491 0.130859L183.436 0.0185547L183.557 4.01562ZM177.088 4.0332V101.902H172.034L171.994 0.1875L176.998 0L177.088 4.0332Z" fill="url(#paint0_linear_14_1628)"/>
<path d="M157.16 28.0164C158.881 28.1662 160.698 27.7658 162.437 27.3163C165.269 26.562 168.091 25.2626 171.009 24.9138C171.486 24.8493 171.916 24.8854 172.161 25.1515C172.161 25.5235 171.887 25.8593 171.498 26.1874C169.204 28.0991 166.834 28.7862 164.313 30.3776C162.782 31.3386 161.958 31.6511 160.833 33.0384C159.586 34.5832 158.605 36.8875 159.343 40.0288C162.317 40.8064 164.494 39.7679 165.956 38.4453C167.291 37.2621 167.565 36.4044 168.507 34.7795C169.999 32.1342 170.639 29.6103 172.469 27.2001C172.755 26.7893 173.078 26.5026 173.432 26.5026C173.694 26.7609 173.74 27.2207 173.665 27.709C173.33 30.7986 172.087 33.7695 171.383 36.779C170.962 38.6054 170.588 40.5223 170.725 42.3332C170.877 44.374 171.728 46.7145 174.342 48.404C176.973 46.7145 177.817 44.3766 177.969 42.3332C178.111 40.5223 177.746 38.6054 177.304 36.779C176.592 33.7695 175.367 30.7986 175.012 27.709C174.973 27.2207 175.012 26.7583 175.249 26.5026C175.606 26.5026 175.922 26.7893 176.22 27.2001C178.042 29.6103 178.697 32.1342 180.192 34.7795C181.116 36.4019 181.402 37.2621 182.735 38.4453C184.212 39.7705 186.364 40.8064 189.36 40.0288C190.072 36.8849 189.115 34.5806 187.856 33.0384C186.741 31.6511 185.922 31.3386 184.376 30.3776C181.867 28.7862 179.495 28.0965 177.174 26.1874C176.807 25.8568 176.528 25.5235 176.536 25.1515C176.773 24.8854 177.196 24.8518 177.683 24.9138C180.607 25.2652 183.425 26.5646 186.264 27.3163C188.003 27.7632 189.8 28.1637 191.527 28.0164C193.454 27.8511 195.687 26.9624 197.281 24.1957C195.687 21.429 193.454 20.5325 191.527 20.362C189.8 20.22 188.003 20.61 186.264 21.0776C183.425 21.8164 180.607 23.1314 177.683 23.4904C177.196 23.5344 176.773 23.5085 176.536 23.2295C176.528 22.8653 176.805 22.5217 177.174 22.2117C179.492 20.2871 181.867 19.6077 184.376 18.0138C185.924 17.0399 186.741 16.7376 187.856 15.3452C189.115 13.7849 190.072 11.5116 189.36 8.34961C186.364 7.59011 184.21 8.61052 182.735 9.93318C181.402 11.1163 181.119 11.9818 180.192 13.6041C178.697 16.2649 178.042 18.7759 176.22 21.1965C175.922 21.5891 175.609 21.8862 175.249 21.881C175.01 21.6149 174.97 21.1706 175.012 20.6669C175.367 17.5876 176.592 14.6142 177.304 11.6175C177.749 9.77819 178.113 7.86912 177.969 6.04013C177.815 4.01222 176.971 1.67948 174.342 0.000326469C171.728 1.67948 170.877 4.01222 170.725 6.04013C170.588 7.86912 170.962 9.77819 171.383 11.6175C172.09 14.6142 173.33 17.5901 173.665 20.6669C173.74 21.168 173.694 21.6149 173.432 21.881C173.078 21.8862 172.755 21.5891 172.469 21.1965C170.639 18.7733 169.999 16.2623 168.507 13.6041C167.568 11.9818 167.291 11.1163 165.956 9.93318C164.494 8.61052 162.317 7.59011 159.343 8.34961C158.605 11.509 159.583 13.7849 160.833 15.3452C161.958 16.7376 162.779 17.0373 164.313 18.0138C166.834 19.6077 169.204 20.2871 171.498 22.2117C171.884 22.5217 172.161 22.8653 172.161 23.2295C171.916 23.5085 171.486 23.5344 171.009 23.4904C168.094 23.1314 165.269 21.8164 162.437 21.0776C160.698 20.6178 158.881 20.22 157.16 20.362C155.223 20.5325 153.012 21.4264 151.425 24.1957C153.012 26.9624 155.223 27.8511 157.16 28.0164Z" fill="url(#paint1_radial_14_1628)"/>
<path d="M103.02 0.0362854C126.902 0.0362854 146.328 19.1975 146.329 42.7541V101.756L141.697 101.939V42.7541C141.697 21.7195 124.345 4.60464 103.02 4.60464C81.6948 4.60481 64.3434 21.7196 64.3433 42.7541V101.865H59.7485L59.7114 99.9738V42.7541C59.7116 19.1976 79.1379 0.0364545 103.02 0.0362854ZM103.015 6.50601C123.273 6.50836 139.751 22.7718 139.751 42.7541V100.148L139.631 101.802L135.128 101.911V42.7541C135.128 25.2834 120.714 11.0746 103.011 11.0744C85.3081 11.0744 70.9021 25.2832 70.9019 42.7541V101.865H66.3345L66.27 100.001V42.7541C66.2703 22.7628 82.7574 6.50862 103.015 6.50601ZM103.019 12.9845C119.666 12.9846 133.2 26.334 133.201 42.7541V101.811L128.513 101.893L128.569 99.9836V42.7541C128.569 28.856 117.109 17.5529 103.019 17.5529C88.9288 17.5529 77.4694 28.8559 77.4692 42.7541V99.965L77.5435 101.838L72.9019 101.893L72.8374 100.001V42.7541C72.8376 26.3431 86.3719 12.9845 103.019 12.9845ZM103.015 19.4533C116.029 19.4556 126.625 29.909 126.625 42.755V101.811L121.89 101.893L122.001 99.9377V42.755C122.001 32.4206 113.479 24.0229 103.011 24.0226C92.543 24.0226 84.0288 32.4296 84.0288 42.755V101.838L79.4614 101.893L79.397 100.001V42.755C79.397 29.9092 89.9923 19.4559 103.015 19.4533ZM103.02 25.9416C112.423 25.9416 120.076 33.4892 120.076 42.7638V101.847L115.378 101.865L115.443 99.965V42.7541C115.443 36.0016 109.875 30.5011 103.02 30.5011C96.165 30.5013 90.5974 35.9925 90.5972 42.7541V99.965L90.6714 101.838L86.0308 101.893L85.9653 100.001V42.7541C85.9655 33.4797 93.6175 25.932 103.02 25.9318V25.9416ZM103.02 56.0461C107.241 56.0463 110.662 59.468 110.663 63.6886C110.663 67.9094 107.241 71.332 103.02 71.3322C98.7991 71.3322 95.3765 67.9096 95.3765 63.6886C95.3767 59.4679 98.7992 56.0461 103.02 56.0461Z" fill="#A57458"/>
<path d="M16.5763 156.322V153.221H0V148.72H38.3852V153.221H21.7689V156.322C22.2682 156.442 22.7875 156.622 23.3067 156.842C24.5849 157.402 25.7433 158.122 26.7618 159.002C27.7005 159.943 28.4594 161.003 29.0386 162.223C29.6177 163.443 29.8973 164.724 29.8973 166.144C29.8973 167.564 29.6177 168.825 29.0386 170.065C28.4594 171.305 27.7005 172.345 26.7618 173.226C25.7233 174.166 24.5849 174.906 23.3067 175.446C22.0286 175.986 20.6505 176.266 19.1926 176.266C17.7347 176.266 16.2967 175.986 14.9986 175.446C13.7004 174.906 12.5621 174.166 11.5635 173.226C10.5649 172.345 9.78604 171.305 9.22684 170.065C8.66763 168.825 8.38804 167.524 8.38804 166.144C8.38804 164.764 8.66763 163.423 9.22684 162.223C9.78604 161.023 10.5649 159.943 11.5635 159.002C12.5621 158.122 13.7204 157.402 15.0186 156.842C15.5578 156.622 16.0571 156.442 16.5564 156.322H16.5763ZM30.0172 146V137.938H3.0157V133.397H35.2098V146H30.0172ZM24.7647 166.124C24.7647 164.584 24.2254 163.283 23.127 162.183C22.0286 161.083 20.7304 160.543 19.1926 160.543C17.6548 160.543 16.2967 161.083 15.1983 162.183C14.0999 163.283 13.5407 164.584 13.5407 166.124C13.5407 167.664 14.0999 168.985 15.1983 170.085C16.2967 171.185 17.6348 171.745 19.1926 171.745C20.7504 171.745 22.0286 171.185 23.127 170.085C24.2254 168.985 24.7647 167.664 24.7647 166.124Z" fill="#595757"/>
<path d="M82.1023 150.42V154.921H43.717V150.42H82.1023ZM46.8126 147.04V132.357H51.9653V142.579H79.486V147.04H46.8126ZM73.3947 166.544C73.3947 167.884 73.1151 169.144 72.5559 170.325C71.9967 171.505 71.2378 172.525 70.3191 173.405C69.4004 174.286 68.282 174.986 67.0038 175.486C65.7256 175.986 64.3676 176.266 62.9296 176.266C61.4917 176.266 60.1336 176.006 58.8554 175.486C57.5773 174.966 56.4589 174.266 55.5402 173.405C54.6215 172.545 53.8626 171.505 53.3034 170.325C52.7442 169.144 52.4646 167.904 52.4646 166.544C52.4646 165.184 52.7442 163.943 53.3034 162.763C53.8626 161.583 54.6215 160.563 55.5402 159.682C56.4589 158.802 57.5773 158.102 58.8554 157.602C60.1336 157.082 61.4917 156.822 62.9296 156.822C64.3676 156.822 65.7256 157.082 67.0038 157.602C68.282 158.122 69.4004 158.822 70.3191 159.682C71.2378 160.543 71.9967 161.583 72.5559 162.763C73.1151 163.943 73.3947 165.184 73.3947 166.544ZM68.302 166.544C68.302 165.104 67.7627 163.863 66.6843 162.823C65.6058 161.783 64.3476 161.243 62.9097 161.243C61.4717 161.243 60.2135 161.763 59.135 162.823C58.0566 163.883 57.5174 165.104 57.5174 166.544C57.5174 167.984 58.0566 169.224 59.135 170.265C60.2135 171.305 61.4717 171.845 62.9097 171.845C64.3476 171.845 65.6058 171.325 66.6843 170.265C67.7627 169.204 68.302 167.984 68.302 166.544Z" fill="#595757"/>
<path d="M87.4298 159.562H125.815V164.203H117.287V174.386H112.194V164.203H101.05V174.386H95.9576V164.203H87.4298V159.562ZM119.085 143.859C119.085 145.479 118.765 147 118.106 148.44C117.447 149.88 116.568 151.121 115.43 152.221C114.271 153.321 112.953 154.181 111.456 154.801C109.958 155.422 108.36 155.742 106.642 155.742C104.925 155.742 103.307 155.422 101.789 154.801C100.271 154.181 98.9533 153.321 97.8349 152.221C96.7165 151.121 95.8178 149.86 95.1588 148.44C94.4997 147.02 94.1802 145.499 94.1802 143.859C94.1802 142.219 94.4997 140.658 95.1588 139.238C95.8178 137.818 96.6966 136.558 97.8349 135.457C98.9533 134.397 100.271 133.557 101.789 132.917C103.307 132.277 104.925 131.977 106.642 131.977C108.36 131.977 109.958 132.297 111.456 132.917C112.953 133.537 114.271 134.377 115.43 135.457C116.548 136.558 117.447 137.818 118.106 139.238C118.765 140.658 119.085 142.199 119.085 143.859ZM113.972 143.859C113.972 142.859 113.772 141.919 113.373 141.039C112.973 140.158 112.454 139.378 111.835 138.698C111.156 138.038 110.357 137.518 109.478 137.118C108.6 136.718 107.641 136.538 106.642 136.538C105.644 136.538 104.705 136.738 103.806 137.118C102.908 137.498 102.129 138.038 101.45 138.698C100.831 139.378 100.311 140.158 99.912 141.039C99.5126 141.919 99.3128 142.859 99.3128 143.859C99.3128 144.859 99.5126 145.76 99.912 146.64C100.311 147.52 100.831 148.3 101.45 148.96C102.129 149.64 102.928 150.18 103.806 150.561C104.685 150.941 105.644 151.121 106.642 151.121C107.641 151.121 108.58 150.941 109.478 150.561C110.377 150.18 111.156 149.66 111.835 148.96C112.454 148.3 112.973 147.54 113.373 146.64C113.772 145.74 113.972 144.819 113.972 143.859Z" fill="#595757"/>
<path d="M131.014 138.218V133.757H154.98V138.218H144.734L155.399 153.321L151.604 156.142L143.177 144.099L134.888 156.482L130.954 153.662L141.619 138.238H130.994L131.014 138.218ZM134.389 158.523H167.761V173.986H162.569V163.104H134.389V158.503V158.523ZM162.569 132.557H167.761V156.042H162.569V146.62H154.8V142.159H162.569V132.557Z" fill="#595757"/>
<path d="M205.023 137.198V132.737H210.176V150.601H196.655V154.862H213.272V159.402H174.886V154.862H191.463V150.601H177.982V132.737H183.075V137.198H205.023ZM183.155 162.143V169.085H210.675V173.686H177.962V162.143H183.155ZM205.023 146.1V141.699H183.075V146.1H205.023Z" fill="#595757"/>
<path d="M218.608 159.002H256.993V163.603H240.377V174.386H235.184V163.603H218.608V159.002ZM226.796 138.558H248.745V133.257H253.897V153.361H221.703V133.257H226.796V138.558ZM248.745 143.059H226.796V148.82H248.745V143.059Z" fill="#595757"/>
<path d="M16.5763 157.032V153.931H0V149.43H38.3852V153.931H21.7689V157.032C22.2682 157.152 22.7875 157.332 23.3067 157.552C24.5849 158.112 25.7433 158.832 26.7618 159.712C27.7005 160.653 28.4594 161.713 29.0386 162.933C29.6177 164.153 29.8973 165.434 29.8973 166.854C29.8973 168.274 29.6177 169.534 29.0386 170.775C28.4594 172.015 27.7005 173.055 26.7618 173.935C25.7233 174.876 24.5849 175.616 23.3067 176.156C22.0286 176.696 20.6505 176.976 19.1926 176.976C17.7347 176.976 16.2967 176.696 14.9986 176.156C13.7004 175.616 12.5621 174.876 11.5635 173.935C10.5649 173.055 9.78604 172.015 9.22684 170.775C8.66763 169.534 8.38804 168.234 8.38804 166.854C8.38804 165.474 8.66763 164.133 9.22684 162.933C9.78604 161.733 10.5649 160.653 11.5635 159.712C12.5621 158.832 13.7204 158.112 15.0186 157.552C15.5578 157.332 16.0571 157.152 16.5564 157.032H16.5763ZM30.0172 146.71V138.648H3.0157V134.107H35.2098V146.71H30.0172ZM24.7647 166.834C24.7647 165.294 24.2254 163.993 23.127 162.893C22.0286 161.793 20.7304 161.253 19.1926 161.253C17.6548 161.253 16.2967 161.793 15.1983 162.893C14.0999 163.993 13.5407 165.294 13.5407 166.834C13.5407 168.374 14.0999 169.694 15.1983 170.795C16.2967 171.895 17.6348 172.455 19.1926 172.455C20.7504 172.455 22.0286 171.895 23.127 170.795C24.2254 169.694 24.7647 168.374 24.7647 166.834Z" fill="#595757"/>
<path d="M82.1023 151.131V155.632H43.717V151.131H82.1023ZM46.8126 147.75V133.067H51.9653V143.289H79.486V147.75H46.8126ZM73.3947 167.254C73.3947 168.595 73.1151 169.855 72.5559 171.035C71.9967 172.216 71.2378 173.236 70.3191 174.116C69.4004 174.996 68.282 175.696 67.0038 176.196C65.7256 176.697 64.3676 176.977 62.9296 176.977C61.4917 176.977 60.1336 176.717 58.8554 176.196C57.5773 175.676 56.4589 174.976 55.5402 174.116C54.6215 173.256 53.8626 172.216 53.3034 171.035C52.7442 169.855 52.4646 168.615 52.4646 167.254C52.4646 165.894 52.7442 164.654 53.3034 163.474C53.8626 162.293 54.6215 161.273 55.5402 160.393C56.4589 159.513 57.5773 158.813 58.8554 158.313C60.1336 157.792 61.4917 157.532 62.9296 157.532C64.3676 157.532 65.7256 157.792 67.0038 158.313C68.282 158.833 69.4004 159.533 70.3191 160.393C71.2378 161.253 71.9967 162.293 72.5559 163.474C73.1151 164.654 73.3947 165.894 73.3947 167.254ZM68.302 167.254C68.302 165.814 67.7627 164.574 66.6843 163.534C65.6058 162.493 64.3476 161.953 62.9097 161.953C61.4717 161.953 60.2135 162.473 59.135 163.534C58.0566 164.594 57.5174 165.814 57.5174 167.254C57.5174 168.695 58.0566 169.935 59.135 170.975C60.2135 172.016 61.4717 172.556 62.9097 172.556C64.3476 172.556 65.6058 172.036 66.6843 170.975C67.7627 169.915 68.302 168.695 68.302 167.254Z" fill="#595757"/>
<path d="M87.4298 160.273H125.815V164.914H117.287V175.097H112.194V164.914H101.05V175.097H95.9576V164.914H87.4298V160.273ZM119.085 144.57C119.085 146.19 118.765 147.711 118.106 149.151C117.447 150.591 116.568 151.832 115.43 152.932C114.271 154.032 112.953 154.892 111.456 155.512C109.958 156.132 108.36 156.453 106.642 156.453C104.925 156.453 103.307 156.132 101.789 155.512C100.271 154.892 98.9533 154.032 97.8349 152.932C96.7165 151.832 95.8178 150.571 95.1588 149.151C94.4997 147.731 94.1802 146.21 94.1802 144.57C94.1802 142.93 94.4997 141.369 95.1588 139.949C95.8178 138.529 96.6966 137.268 97.8349 136.168C98.9533 135.108 100.271 134.268 101.789 133.628C103.307 132.988 104.925 132.687 106.642 132.687C108.36 132.687 109.958 133.008 111.456 133.628C112.953 134.248 114.271 135.088 115.43 136.168C116.548 137.268 117.447 138.529 118.106 139.949C118.765 141.369 119.085 142.91 119.085 144.57ZM113.972 144.57C113.972 143.57 113.772 142.63 113.373 141.749C112.973 140.869 112.454 140.089 111.835 139.409C111.156 138.749 110.357 138.229 109.478 137.829C108.6 137.428 107.641 137.248 106.642 137.248C105.644 137.248 104.705 137.448 103.806 137.829C102.908 138.209 102.129 138.749 101.45 139.409C100.831 140.089 100.311 140.869 99.912 141.749C99.5126 142.63 99.3128 143.57 99.3128 144.57C99.3128 145.57 99.5126 146.47 99.912 147.351C100.311 148.231 100.831 149.011 101.45 149.671C102.129 150.351 102.928 150.891 103.806 151.271C104.685 151.652 105.644 151.832 106.642 151.832C107.641 151.832 108.58 151.652 109.478 151.271C110.377 150.891 111.156 150.371 111.835 149.671C112.454 149.011 112.973 148.251 113.373 147.351C113.772 146.45 113.972 145.53 113.972 144.57Z" fill="#595757"/>
<path d="M131.014 138.929V134.468H154.98V138.929H144.734L155.399 154.032L151.604 156.852L143.177 144.81L134.888 157.192L130.954 154.372L141.619 138.949H130.994L131.014 138.929ZM134.389 159.233H167.761V174.696H162.569V163.814H134.389V159.213V159.233ZM162.569 133.267H167.761V156.752H162.569V147.33H154.8V142.869H162.569V133.267Z" fill="#595757"/>
<path d="M205.023 137.909V133.448H210.176V151.311H196.655V155.572H213.272V160.113H174.886V155.572H191.463V151.311H177.982V133.448H183.075V137.909H205.023ZM183.155 162.854V169.795H210.675V174.396H177.962V162.854H183.155ZM205.023 146.811V142.41H183.075V146.811H205.023Z" fill="#595757"/>
<path d="M218.608 159.713H256.993V164.314H240.377V175.096H235.184V164.314H218.608V159.713ZM226.796 139.268H248.745V133.967H253.897V154.072H221.703V133.967H226.796V139.268ZM248.745 143.769H226.796V149.531H248.745V143.769Z" fill="#595757"/>
<defs>
<linearGradient id="paint0_linear_14_1628" x1="174.57" y1="0" x2="174.57" y2="101.977" gradientUnits="userSpaceOnUse">
<stop offset="0.418269" stop-color="white"/>
<stop offset="0.634615" stop-color="#A57458"/>
</linearGradient>
<radialGradient id="paint1_radial_14_1628" cx="0" cy="0" r="1" gradientUnits="userSpaceOnUse" gradientTransform="translate(174.353 24.2021) rotate(90) scale(24.2018 22.9282)">
<stop stop-color="#F9D1B9"/>
<stop offset="1" stop-color="#A57458"/>
</radialGradient>
</defs>
</svg>
