<svg width="18" height="13" viewBox="0 0 18 13" fill="none" xmlns="http://www.w3.org/2000/svg">
<path d="M13.8885 7.5775L10.6921 10.7739C10.4678 10.9982 10.3603 11.2599 10.3696 11.559C10.379 11.8581 10.4865 12.1198 10.6921 12.3441C10.9164 12.5684 11.1828 12.6852 11.4912 12.6945C11.7996 12.7039 12.066 12.5964 12.2903 12.3721L17.4213 7.24103C17.6457 7.01672 17.7578 6.75503 17.7578 6.45595C17.7578 6.15687 17.6457 5.89518 17.4213 5.67087L12.2903 0.539802C12.066 0.315493 11.7996 0.208011 11.4912 0.217358C11.1828 0.226704 10.9164 0.343531 10.6921 0.56784C10.4865 0.792149 10.379 1.05384 10.3696 1.35292C10.3603 1.652 10.4678 1.91369 10.6921 2.138L13.8885 5.33441H1.38326C1.06549 5.33441 0.799118 5.44189 0.584154 5.65685C0.369192 5.87181 0.261711 6.13818 0.261711 6.45595C0.261711 6.77372 0.369192 7.04009 0.584154 7.25505C0.799118 7.47002 1.06549 7.5775 1.38326 7.5775H13.8885Z" fill="#F5D747"/>
</svg>
