<svg width="20" height="20" viewBox="0 0 20 20" fill="none" xmlns="http://www.w3.org/2000/svg">
<path d="M10 14.1667C10.2361 14.1667 10.434 14.0868 10.5938 13.9271C10.7535 13.7674 10.8333 13.5695 10.8333 13.3333C10.8333 13.0972 10.7535 12.8993 10.5938 12.7396C10.434 12.5799 10.2361 12.5 10 12.5C9.76389 12.5 9.56597 12.5799 9.40625 12.7396C9.24653 12.8993 9.16667 13.0972 9.16667 13.3333C9.16667 13.5695 9.24653 13.7674 9.40625 13.9271C9.56597 14.0868 9.76389 14.1667 10 14.1667ZM10 10.8333C10.2361 10.8333 10.434 10.7535 10.5938 10.5938C10.7535 10.434 10.8333 10.2361 10.8333 10C10.8333 9.7639 10.7535 9.56598 10.5938 9.40626C10.434 9.24654 10.2361 9.16668 10 9.16668C9.76389 9.16668 9.56597 9.24654 9.40625 9.40626C9.24653 9.56598 9.16667 9.7639 9.16667 10C9.16667 10.2361 9.24653 10.434 9.40625 10.5938C9.56597 10.7535 9.76389 10.8333 10 10.8333ZM10 7.50001C10.2361 7.50001 10.434 7.42015 10.5938 7.26043C10.7535 7.1007 10.8333 6.90279 10.8333 6.66668C10.8333 6.43057 10.7535 6.23265 10.5938 6.07293C10.434 5.9132 10.2361 5.83334 10 5.83334C9.76389 5.83334 9.56597 5.9132 9.40625 6.07293C9.24653 6.23265 9.16667 6.43057 9.16667 6.66668C9.16667 6.90279 9.24653 7.1007 9.40625 7.26043C9.56597 7.42015 9.76389 7.50001 10 7.50001ZM16.6667 16.6667H3.33333C2.875 16.6667 2.48264 16.5035 2.15625 16.1771C1.82986 15.8507 1.66667 15.4583 1.66667 15V11.6667C2.125 11.6667 2.51736 11.5035 2.84375 11.1771C3.17014 10.8507 3.33333 10.4583 3.33333 10C3.33333 9.54168 3.17014 9.14932 2.84375 8.82293C2.51736 8.49654 2.125 8.33334 1.66667 8.33334V5.00001C1.66667 4.54168 1.82986 4.14932 2.15625 3.82293C2.48264 3.49654 2.875 3.33334 3.33333 3.33334H16.6667C17.125 3.33334 17.5174 3.49654 17.8438 3.82293C18.1701 4.14932 18.3333 4.54168 18.3333 5.00001V8.33334C17.875 8.33334 17.4826 8.49654 17.1562 8.82293C16.8299 9.14932 16.6667 9.54168 16.6667 10C16.6667 10.4583 16.8299 10.8507 17.1562 11.1771C17.4826 11.5035 17.875 11.6667 18.3333 11.6667V15C18.3333 15.4583 18.1701 15.8507 17.8438 16.1771C17.5174 16.5035 17.125 16.6667 16.6667 16.6667Z" fill="#333333"/>
</svg>
