<svg width="110" height="30" viewBox="0 0 110 30" fill="none" xmlns="http://www.w3.org/2000/svg">
<path d="M11.0431 16.2186V14.1529H0V11.1544H25.5722V14.1529H14.5024V16.2186C14.835 16.2985 15.181 16.4185 15.5269 16.5651C16.3784 16.9382 17.1501 17.418 17.8287 18.0043C18.454 18.6307 18.9596 19.337 19.3454 20.15C19.7313 20.9629 19.9175 21.8158 19.9175 22.762C19.9175 23.7082 19.7313 24.5478 19.3454 25.3741C18.9596 26.2003 18.454 26.8933 17.8287 27.4797C17.1368 28.1061 16.3784 28.5992 15.5269 28.959C14.6754 29.3188 13.7573 29.5054 12.7861 29.5054C11.8148 29.5054 10.8569 29.3188 9.99204 28.959C9.12722 28.5992 8.36883 28.1061 7.70358 27.4797C7.03833 26.8933 6.51944 26.2003 6.1469 25.3741C5.77436 24.5478 5.5881 23.6816 5.5881 22.762C5.5881 21.8425 5.77436 20.9496 6.1469 20.15C6.51944 19.3504 7.03833 18.6307 7.70358 18.0043C8.36883 17.418 9.14052 16.9382 10.0053 16.5651C10.3646 16.4185 10.6972 16.2985 11.0298 16.2186H11.0431ZM19.9974 9.34193V3.97123H2.00905V0.946045H23.4567V9.34193H19.9974ZM16.4982 22.7487C16.4982 21.7225 16.1389 20.8563 15.4072 20.1233C14.6754 19.3903 13.8106 19.0305 12.7861 19.0305C11.7616 19.0305 10.8569 19.3903 10.1251 20.1233C9.39331 20.8563 9.02077 21.7225 9.02077 22.7487C9.02077 23.7749 9.39331 24.6544 10.1251 25.3874C10.8569 26.1204 11.7483 26.4935 12.7861 26.4935C13.8239 26.4935 14.6754 26.1204 15.4072 25.3874C16.1389 24.6544 16.4982 23.7749 16.4982 22.7487Z" fill="#595757"/>
<path d="M54.6962 12.2873V15.2858H29.124V12.2873H54.6962ZM31.1863 10.035V0.253174H34.619V7.06317H52.9532V10.035H31.1863ZM48.8952 23.0287C48.8952 23.9216 48.709 24.7612 48.3364 25.5474C47.9639 26.3337 47.4583 27.0134 46.8463 27.5998C46.2342 28.1861 45.4891 28.6526 44.6376 28.9858C43.7861 29.3189 42.8814 29.5055 41.9234 29.5055C40.9655 29.5055 40.0607 29.3322 39.2092 28.9858C38.3577 28.6393 37.6126 28.1728 37.0006 27.5998C36.3885 27.0267 35.883 26.3337 35.5104 25.5474C35.1379 24.7612 34.9516 23.9349 34.9516 23.0287C34.9516 22.1224 35.1379 21.2962 35.5104 20.5099C35.883 19.7236 36.3885 19.044 37.0006 18.4576C37.6126 17.8712 38.3577 17.4048 39.2092 17.0716C40.0607 16.7251 40.9655 16.5518 41.9234 16.5518C42.8814 16.5518 43.7861 16.7251 44.6376 17.0716C45.4891 17.4181 46.2342 17.8845 46.8463 18.4576C47.4583 19.0306 47.9639 19.7236 48.3364 20.5099C48.709 21.2962 48.8952 22.1224 48.8952 23.0287ZM45.5025 23.0287C45.5025 22.0691 45.1432 21.2429 44.4248 20.5499C43.7063 19.8569 42.8681 19.4971 41.9101 19.4971C40.9522 19.4971 40.1139 19.8436 39.3955 20.5499C38.677 21.2562 38.3178 22.0691 38.3178 23.0287C38.3178 23.9882 38.677 24.8145 39.3955 25.5075C40.1139 26.2004 40.9522 26.5603 41.9101 26.5603C42.8681 26.5603 43.7063 26.2138 44.4248 25.5075C45.1432 24.8011 45.5025 23.9882 45.5025 23.0287Z" fill="#595757"/>
<path d="M11.0431 16.6919V14.6263H0V11.6278H25.5722V14.6263H14.5024V16.6919C14.835 16.7719 15.181 16.8918 15.5269 17.0384C16.3784 17.4116 17.1501 17.8914 17.8287 18.4777C18.454 19.1041 18.9596 19.8104 19.3454 20.6234C19.7313 21.4363 19.9175 22.2892 19.9175 23.2354C19.9175 24.1816 19.7313 25.0212 19.3454 25.8475C18.9596 26.6737 18.454 27.3667 17.8287 27.9531C17.1368 28.5795 16.3784 29.0725 15.5269 29.4324C14.6754 29.7922 13.7573 29.9788 12.7861 29.9788C11.8148 29.9788 10.8569 29.7922 9.99204 29.4324C9.12722 29.0725 8.36883 28.5795 7.70358 27.9531C7.03833 27.3667 6.51944 26.6737 6.1469 25.8475C5.77436 25.0212 5.5881 24.155 5.5881 23.2354C5.5881 22.3159 5.77436 21.423 6.1469 20.6234C6.51944 19.8237 7.03833 19.1041 7.70358 18.4777C8.36883 17.8914 9.14052 17.4116 10.0053 17.0384C10.3646 16.8918 10.6972 16.7719 11.0298 16.6919H11.0431ZM19.9974 9.81532V4.44462H2.00905V1.41943H23.4567V9.81532H19.9974ZM16.4982 23.2221C16.4982 22.1959 16.1389 21.3297 15.4072 20.5967C14.6754 19.8637 13.8106 19.5039 12.7861 19.5039C11.7616 19.5039 10.8569 19.8637 10.1251 20.5967C9.39331 21.3297 9.02077 22.1959 9.02077 23.2221C9.02077 24.2482 9.39331 25.1278 10.1251 25.8608C10.8569 26.5938 11.7483 26.9669 12.7861 26.9669C13.8239 26.9669 14.6754 26.5938 15.4072 25.8608C16.1389 25.1278 16.4982 24.2482 16.4982 23.2221Z" fill="#595757"/>
<path d="M54.6962 12.7604V15.7589H29.124V12.7604H54.6962ZM31.1863 10.5082V0.726318H34.619V7.53631H52.9532V10.5082H31.1863ZM48.8952 23.5018C48.8952 24.3947 48.709 25.2343 48.3364 26.0206C47.9639 26.8069 47.4583 27.4865 46.8463 28.0729C46.2342 28.6593 45.4891 29.1257 44.6376 29.4589C43.7861 29.7921 42.8814 29.9786 41.9234 29.9786C40.9655 29.9786 40.0607 29.8054 39.2092 29.4589C38.3577 29.1124 37.6126 28.646 37.0006 28.0729C36.3885 27.4999 35.883 26.8069 35.5104 26.0206C35.1379 25.2343 34.9516 24.408 34.9516 23.5018C34.9516 22.5956 35.1379 21.7693 35.5104 20.9831C35.883 20.1968 36.3885 19.5171 37.0006 18.9307C37.6126 18.3443 38.3577 17.8779 39.2092 17.5447C40.0607 17.1982 40.9655 17.025 41.9234 17.025C42.8814 17.025 43.7861 17.1982 44.6376 17.5447C45.4891 17.8912 46.2342 18.3577 46.8463 18.9307C47.4583 19.5038 47.9639 20.1968 48.3364 20.9831C48.709 21.7693 48.8952 22.5956 48.8952 23.5018ZM45.5025 23.5018C45.5025 22.5423 45.1432 21.716 44.4248 21.023C43.7063 20.33 42.8681 19.9702 41.9101 19.9702C40.9522 19.9702 40.1139 20.3167 39.3955 21.023C38.677 21.7294 38.3178 22.5423 38.3178 23.5018C38.3178 24.4613 38.677 25.2876 39.3955 25.9806C40.1139 26.6736 40.9522 27.0334 41.9101 27.0334C42.8681 27.0334 43.7063 26.6869 44.4248 25.9806C45.1432 25.2743 45.5025 24.4613 45.5025 23.5018Z" fill="#595757"/>
<path d="M107.301 1.16602V30H105.802V0.0214844H107.282L107.301 1.16602ZM101.586 1.17188V29.9951H100.087V0.0380859L101.522 0.0166016L101.586 1.17188ZM99.6787 1.17871V29.9863H98.1826L98.1797 0.0634766L99.625 0.0078125L99.6787 1.17871ZM105.385 1.18164V29.9844H103.9L103.886 0.0498047L104.482 0.0380859L105.349 0.00488281L105.385 1.18164ZM103.48 1.18652V29.9785H101.994L101.982 0.0556641L103.454 0L103.48 1.18652Z" fill="url(#paint0_linear_8_157)"/>
<path d="M97.6188 8.24215C98.1253 8.28623 98.6598 8.16844 99.1713 8.0362C100.004 7.81428 100.835 7.43201 101.693 7.32941C101.833 7.31041 101.96 7.32105 102.032 7.39933C102.032 7.50876 101.951 7.60756 101.837 7.70408C101.162 8.26647 100.465 8.46863 99.7232 8.93679C99.2728 9.2195 99.0303 9.31146 98.6994 9.71957C98.3325 10.174 98.044 10.852 98.2612 11.7761C99.1361 12.0049 99.7764 11.6993 100.207 11.3102C100.599 10.9622 100.68 10.7098 100.957 10.2318C101.396 9.45358 101.584 8.71107 102.123 8.002C102.207 7.88116 102.302 7.7968 102.406 7.7968C102.483 7.8728 102.497 8.00808 102.474 8.15172C102.376 9.06066 102.01 9.93465 101.803 10.82C101.679 11.3574 101.569 11.9213 101.61 12.454C101.654 13.0544 101.905 13.743 102.674 14.24C103.448 13.743 103.696 13.0552 103.741 12.454C103.782 11.9213 103.675 11.3574 103.545 10.82C103.336 9.93465 102.975 9.06066 102.871 8.15172C102.859 8.00808 102.871 7.87204 102.941 7.7968C103.046 7.7968 103.138 7.88116 103.226 8.002C103.762 8.71107 103.955 9.45358 104.395 10.2318C104.667 10.7091 104.751 10.9622 105.143 11.3102C105.577 11.7001 106.21 12.0049 107.092 11.7761C107.301 10.8512 107.02 10.1733 106.649 9.71957C106.321 9.31146 106.08 9.2195 105.626 8.93679C104.887 8.46863 104.19 8.26571 103.507 7.70408C103.399 7.6068 103.317 7.50876 103.319 7.39933C103.389 7.32105 103.513 7.31117 103.656 7.32941C104.517 7.43277 105.346 7.81504 106.181 8.0362C106.693 8.16768 107.221 8.28547 107.729 8.24215C108.296 8.19351 108.953 7.93208 109.422 7.11813C108.953 6.30418 108.296 6.04046 107.729 5.99031C107.221 5.94851 106.693 6.06327 106.181 6.20082C105.346 6.41818 104.517 6.80502 103.656 6.91065C103.513 6.92357 103.389 6.91597 103.319 6.83389C103.317 6.72674 103.398 6.62566 103.507 6.53446C104.189 5.96827 104.887 5.76839 105.626 5.29948C106.081 5.01296 106.321 4.92404 106.649 4.51441C107.02 4.05537 107.301 3.38658 107.092 2.45636C106.21 2.23292 105.577 2.53311 105.143 2.92223C104.751 3.2703 104.667 3.5249 104.395 4.00218C103.955 4.78496 103.762 5.52367 103.226 6.23578C103.138 6.3513 103.046 6.4387 102.941 6.43718C102.87 6.3589 102.859 6.22818 102.871 6.07999C102.975 5.17408 103.336 4.29933 103.545 3.41774C103.676 2.87663 103.783 2.315 103.741 1.77693C103.695 1.18034 103.447 0.494065 102.674 7.24792e-05C101.905 0.494065 101.654 1.18034 101.61 1.77693C101.569 2.315 101.679 2.87663 101.803 3.41774C102.011 4.29933 102.376 5.17484 102.474 6.07999C102.497 6.22742 102.483 6.3589 102.406 6.43718C102.302 6.4387 102.207 6.3513 102.123 6.23578C101.584 5.52291 101.396 4.7842 100.957 4.00218C100.681 3.5249 100.599 3.2703 100.207 2.92223C99.7764 2.53311 99.1361 2.23292 98.2612 2.45636C98.044 3.38582 98.3317 4.05537 98.6994 4.51441C99.0303 4.92404 99.2721 5.0122 99.7232 5.29948C100.465 5.76839 101.162 5.96827 101.837 6.53446C101.951 6.62566 102.032 6.72674 102.032 6.83389C101.96 6.91597 101.833 6.92357 101.693 6.91065C100.835 6.80502 100.004 6.41818 99.1713 6.20082C98.6598 6.06555 98.1253 5.94851 97.6188 5.99031C97.049 6.04046 96.3986 6.30342 95.9316 7.11813C96.3986 7.93208 97.049 8.19351 97.6188 8.24215Z" fill="url(#paint1_radial_8_157)"/>
<path d="M81.6914 0.0109863C88.7174 0.0109863 94.4326 5.6482 94.4326 12.5784V29.9358L93.0703 29.9895V12.5784C93.0703 6.39014 87.9652 1.35474 81.6914 1.35474C75.4177 1.35483 70.3135 6.39019 70.3135 12.5784V29.968H68.9619L68.9502 29.4114V12.5784C68.9502 5.64825 74.6655 0.0110774 81.6914 0.0109863ZM81.6895 1.91431C87.6495 1.91468 92.4971 6.69951 92.4971 12.5784V29.4622L92.4619 29.9495L91.1377 29.9817V12.5784C91.1377 7.43854 86.8966 3.25806 81.6885 3.25806C76.4805 3.25821 72.2432 7.43863 72.2432 12.5784V29.968H70.8994L70.8799 29.4192V12.5784C70.8799 6.69726 75.73 1.91539 81.6895 1.91431ZM81.6914 3.81958C86.5887 3.81972 90.5703 7.74777 90.5703 12.5784V29.9514L89.1914 29.9758L89.208 29.4143V12.5784C89.208 8.48971 85.8365 5.16445 81.6914 5.16431C77.5461 5.16431 74.1748 8.48962 74.1748 12.5784V29.4084L74.1963 29.9602L72.8311 29.9758L72.8115 29.4192V12.5784C72.8115 7.75037 76.7939 3.81958 81.6914 3.81958ZM81.6904 5.7229C85.5189 5.72361 88.6357 8.7992 88.6357 12.5784V29.9514L87.2432 29.9758L87.2764 29.4006V12.5784C87.2764 9.53813 84.7689 7.06781 81.6895 7.06763C78.6098 7.06763 76.1045 9.54071 76.1045 12.5784V29.9602L74.7617 29.9758L74.7422 29.4192V12.5784C74.7422 8.79923 77.8592 5.72365 81.6904 5.7229ZM81.6914 7.63208C84.4575 7.63208 86.7088 9.85196 86.709 12.5803V29.9622L85.3271 29.968L85.3457 29.4084V12.5784C85.3457 10.5918 83.7082 8.9729 81.6914 8.9729C79.6747 8.97294 78.0371 10.5891 78.0371 12.5784V29.4084L78.0586 29.9602L76.6934 29.9758L76.6738 29.4192V12.5784C76.6738 9.84988 78.9252 7.62919 81.6914 7.62915V7.63208ZM81.6914 16.4885C82.9331 16.4885 83.9404 17.4949 83.9404 18.7366C83.9404 19.9783 82.9332 20.9846 81.6914 20.9846C80.4498 20.9844 79.4434 19.9782 79.4434 18.7366C79.4434 17.495 80.4499 16.4888 81.6914 16.4885Z" fill="#A57458"/>
<defs>
<linearGradient id="paint0_linear_8_157" x1="102.74" y1="0" x2="102.74" y2="30" gradientUnits="userSpaceOnUse">
<stop offset="0.418269" stop-color="white"/>
<stop offset="0.634615" stop-color="#A57458"/>
</linearGradient>
<radialGradient id="paint1_radial_8_157" cx="0" cy="0" r="1" gradientUnits="userSpaceOnUse" gradientTransform="translate(102.677 7.12003) rotate(90) scale(7.11996 6.74525)">
<stop stop-color="#F9D1B9"/>
<stop offset="1" stop-color="#A57458"/>
</radialGradient>
</defs>
</svg>
