<svg width="34" height="20" viewBox="0 0 34 20" fill="none" xmlns="http://www.w3.org/2000/svg">
<path fill-rule="evenodd" clip-rule="evenodd" d="M33.667 9.9987C33.667 10.3614 33.5192 10.7084 33.2578 10.9598L24.5911 19.2931C24.0603 19.8035 23.2163 19.787 22.7059 19.2562C22.1955 18.7254 22.212 17.8813 22.7428 17.3709L29.0233 11.332L1.66829 11.332C0.931913 11.332 0.334961 10.7351 0.334961 9.9987C0.334961 9.26232 0.931914 8.66536 1.66829 8.66536L29.0233 8.66536L22.7428 2.62648C22.212 2.11608 22.1955 1.27203 22.7059 0.741221C23.2163 0.210414 24.0603 0.193864 24.5911 0.704255L33.2578 9.03759C33.5192 9.28897 33.667 9.63601 33.667 9.9987Z" fill="black" stroke="black" stroke-width="0.5" stroke-linecap="round" stroke-linejoin="round"/>
</svg>
