<svg width="19" height="20" viewBox="0 0 19 20" fill="none" xmlns="http://www.w3.org/2000/svg">
<g clip-path="url(#clip0_8_309)">
<path d="M8.56738 4.07324C8.85314 4.07345 9.1018 4.26805 9.16992 4.54395V4.54492C9.17016 4.54587 9.17125 4.54745 9.17188 4.5498C9.17308 4.5546 9.17412 4.563 9.17676 4.57324C9.18222 4.59438 9.19082 4.62724 9.20215 4.66895C9.22505 4.75323 9.26006 4.87775 9.30664 5.03125C9.40002 5.33889 9.54096 5.76362 9.72656 6.23145C10.1067 7.18939 10.6467 8.24321 11.3145 8.88086C12.1349 9.66428 13.6053 10.4081 15.5459 10.8828C15.8232 10.9508 16.0184 11.1976 16.0186 11.4814C16.0186 11.7655 15.8233 12.0131 15.5459 12.0811C13.7268 12.5261 12.3203 13.2068 11.4756 13.9355L11.3145 14.083C10.6467 14.7214 10.1066 15.7749 9.72656 16.7324C9.54087 17.2004 9.40002 17.626 9.30664 17.9336C9.26022 18.0865 9.22503 18.2098 9.20215 18.2939C9.19073 18.336 9.18223 18.3694 9.17676 18.3906C9.17411 18.4009 9.17309 18.4093 9.17188 18.4141C9.17121 18.4162 9.17015 18.418 9.16992 18.4189C9.10184 18.6949 8.85319 18.8894 8.56738 18.8896C8.28147 18.8896 8.03205 18.6959 7.96387 18.4199V18.4189C7.96364 18.418 7.96258 18.4163 7.96191 18.4141C7.96071 18.4093 7.95967 18.4009 7.95703 18.3906C7.95156 18.3694 7.94306 18.336 7.93164 18.2939C7.90874 18.2097 7.87367 18.0859 7.82715 17.9326C7.73375 17.6249 7.59295 17.1995 7.40723 16.7314C7.02722 15.7738 6.48776 14.7206 5.82031 14.083C4.99986 13.2995 3.52859 12.5558 1.58789 12.0811C1.31054 12.0131 1.11523 11.7655 1.11523 11.4814C1.11539 11.1976 1.31069 10.9508 1.58789 10.8828C3.52859 10.408 4.99986 9.66434 5.82031 8.88086L6.06445 8.62402C6.62045 7.98141 7.07464 7.06857 7.40723 6.23047C7.59294 5.76245 7.73378 5.33687 7.82715 5.0293C7.87356 4.87636 7.90879 4.75302 7.93164 4.66895C7.94297 4.62726 7.95157 4.59438 7.95703 4.57324C7.95968 4.56298 7.9607 4.55461 7.96191 4.5498C7.96254 4.54744 7.96363 4.54589 7.96387 4.54492C8.03188 4.26865 8.28129 4.07324 8.56738 4.07324Z" fill="#7A1F2B"/>
<path d="M15.0859 14C15.2045 14.0001 15.3077 14.0808 15.3359 14.1953L15.3369 14.1973C15.3374 14.1992 15.3378 14.2028 15.3389 14.207C15.3411 14.2158 15.3449 14.2296 15.3496 14.2471C15.3591 14.282 15.3733 14.3338 15.3926 14.3975C15.4313 14.5251 15.4894 14.7014 15.5664 14.8955C15.7241 15.2929 15.9486 15.7296 16.2256 15.9941C16.566 16.3192 17.1763 16.6282 17.9814 16.8252C18.0963 16.8534 18.1776 16.9556 18.1777 17.0732C18.1777 17.1911 18.0965 17.294 17.9814 17.3223C17.2267 17.5069 16.6425 17.7894 16.292 18.0918L16.2256 18.1523C15.9485 18.4172 15.7241 18.8547 15.5664 19.252C15.4893 19.4462 15.4313 19.6234 15.3926 19.751C15.3734 19.8143 15.3591 19.8656 15.3496 19.9004C15.3449 19.9178 15.3411 19.9317 15.3389 19.9404C15.3379 19.9443 15.3374 19.9472 15.3369 19.9492C15.3367 19.9502 15.336 19.9517 15.3359 19.9521C15.3076 20.0665 15.2044 20.1474 15.0859 20.1475C14.9673 20.1475 14.8642 20.0667 14.8359 19.9521L14.835 19.9492C14.8345 19.9473 14.834 19.9443 14.833 19.9404C14.8308 19.9317 14.827 19.9177 14.8223 19.9004C14.8128 19.8654 14.7986 19.8137 14.7793 19.75C14.7406 19.6223 14.6815 19.4461 14.6045 19.252C14.4468 18.8545 14.2233 18.4169 13.9463 18.1523C13.6059 17.8273 12.9955 17.5192 12.1904 17.3223C12.0753 17.2941 11.9941 17.1911 11.9941 17.0732C11.9943 16.9555 12.0754 16.8533 12.1904 16.8252C12.9956 16.6282 13.6059 16.3192 13.9463 15.9941L14.0479 15.8877C14.2784 15.6211 14.4665 15.2421 14.6045 14.8945C14.6815 14.7005 14.7406 14.524 14.7793 14.3965C14.7985 14.3331 14.8128 14.2819 14.8223 14.2471C14.827 14.2296 14.8307 14.2158 14.833 14.207C14.8341 14.2028 14.8345 14.1992 14.835 14.1973L14.8359 14.1953C14.8643 14.0809 14.9673 14 15.0859 14Z" fill="#CCA3A8"/>
<circle opacity="0.3" cx="14" cy="6" r="4" fill="url(#paint0_linear_8_309)"/>
</g>
<defs>
<linearGradient id="paint0_linear_8_309" x1="18" y1="-0.4" x2="10" y2="6" gradientUnits="userSpaceOnUse">
<stop stop-color="#7A1F2B"/>
<stop offset="1" stop-color="#7A1F2B" stop-opacity="0"/>
</linearGradient>
<clipPath id="clip0_8_309">
<rect width="19" height="20" fill="white"/>
</clipPath>
</defs>
</svg>
